<svg xmlns="http://www.w3.org/2000/svg" xmlns:xlink="http://www.w3.org/1999/xlink" width="80" height="80" viewBox="0 0 80 80">
  <defs>
    <linearGradient id="linear-gradient" x2="1" y2="1" gradientUnits="objectBoundingBox">
      <stop offset="0" stop-color="#f2c314"/>
      <stop offset="1" stop-color="#fc3832"/>
    </linearGradient>
    <filter id="Rectangle_9" x="0" y="0" width="80" height="80" filterUnits="userSpaceOnUse">
      <feOffset input="SourceAlpha"/>
      <feGaussianBlur result="blur"/>
      <feFlood flood-color="#240880" flood-opacity="0.149"/>
      <feComposite operator="in" in2="blur"/>
      <feComposite in="SourceGraphic"/>
    </filter>
  </defs>
  <g id="Сгруппировать_1130" data-name="Сгруппировать 1130" transform="translate(-988 -1592)">
    <g id="Group_8" data-name="Group 8" transform="translate(988 1592)">
      <g transform="matrix(1, 0, 0, 1, 0, 0)" filter="url(#Rectangle_9)">
        <rect id="Rectangle_9-2" data-name="Rectangle 9" width="80" height="80" rx="14" fill="url(#linear-gradient)"/>
      </g>
    </g>
    <g id="rocket" transform="translate(1005.117 1612.569)">
      <path id="Контур_2" data-name="Контур 2" d="M42.6,0c-8.7-.142-18.63,4-24.913,10.428A24.764,24.764,0,0,0,1.53,16.7a.8.8,0,0,0-.23.866.912.912,0,0,0,.751.573l7.16.934-.884.9a.792.792,0,0,0,.037,1.162L20.3,32.007a1,1,0,0,0,1.276.032l.99-.805,1.026,6.52a.877.877,0,0,0,.658.653.931.931,0,0,0,.266.037,1.1,1.1,0,0,0,.719-.272,20.526,20.526,0,0,0,6.82-14.657C39.122,17.781,43.709,8.746,43.507.83A.9.9,0,0,0,42.6,0Zm-8.561,14.6a4.98,4.98,0,0,1-6.569,0,3.974,3.974,0,0,1,0-5.982,4.979,4.979,0,0,1,6.569,0A3.972,3.972,0,0,1,34.037,14.607Z" transform="translate(0)" fill="#fff"/>
      <path id="Контур_3" data-name="Контур 3" d="M4.011,17.33C2.435,18.9.272,26.012.031,26.817a.736.736,0,0,0,.705.947.755.755,0,0,0,.212-.031c.805-.241,7.922-2.4,9.5-3.975A4.548,4.548,0,0,0,4.011,17.33Z" transform="translate(1.253 10.68)" fill="#fff"/>
    </g>
  </g>
</svg>
